<?xml version="1.0" encoding="UTF-8" standalone="no"?>
<!DOCTYPE svg PUBLIC "-//W3C//DTD SVG 1.1//EN" "http://www.w3.org/Graphics/SVG/1.1/DTD/svg11.dtd">
<svg width="100%" height="100%" viewBox="0 0 100 100" version="1.1" xmlns="http://www.w3.org/2000/svg" xmlns:xlink="http://www.w3.org/1999/xlink" xml:space="preserve" xmlns:serif="http://www.serif.com/" style="fill-rule:evenodd;clip-rule:evenodd;stroke-linejoin:round;stroke-miterlimit:2;">
    <g transform="matrix(2.7915,0,0,2.7915,-1.9608,-0.494775)">
        <path d="M17.68,22C17.68,22 19.617,29.873 18.867,31.373C16.494,36.119 17.68,36 18.867,36L21.24,36C23.613,36 20.053,22 20.053,22L17.68,22ZM5.255,19.387C5.255,19.387 4.819,27.38 4.068,28.88C1.695,33.626 1.695,36 2.882,36L5.255,36C6.441,36 6.442,31.846 6.442,30.66C6.442,29.473 7.629,22.057 7.629,22.057L5.255,19.387Z" style="fill:rgb(74,124,30);fill-rule:nonzero;" />
    </g>
    <g transform="matrix(2.7915,0,0,2.7915,-1.9608,-0.494775)">
        <path d="M12.374,5.251C10.306,5.268 8.165,4.816 6.851,7.35C5.447,10.059 4.786,15.929 7.627,17.014C10.106,17.961 15.56,15.827 21.493,18.201C27.426,20.574 29.799,34.813 34.508,34.831C35.732,34.836 35.714,35.954 34.509,35.963C28.595,36.008 26,30.066 25,30.066C25,30.066 26,36 25,36L21,36C20,36 21,32.919 21,31.732L21,30.065C21,30.065 19.407,31.283 15.064,31.283C11.781,31.284 9,30.066 9,30.066C9,30.066 10,36 9,36L5.255,36C3.577,36 5.421,31.987 5.255,30.066C5.153,28.884 4.745,25.309 4.031,24.133C2.305,21.286 1.268,12.612 2.102,8.848C2.883,5.322 5.224,2.215 6.777,1.338C8.296,0.479 9.64,-0.162 12.968,0.373C14.743,0.658 16.559,3.295 15.858,4.647C15.437,5.457 13.918,5.238 12.374,5.251Z" style="fill:rgb(133,185,95);fill-rule:nonzero;" />
    </g>
    <g transform="matrix(2.7915,0,0,2.7915,-1.9608,-0.494775)">
        <path d="M12.967,2.181C12.967,2.509 12.702,2.774 12.374,2.774C12.046,2.774 11.781,2.509 11.781,2.181C11.781,1.853 12.046,1.588 12.374,1.588C12.702,1.588 12.967,1.854 12.967,2.181Z" style="fill-rule:nonzero;" />
    </g>
    <g transform="matrix(2.7915,0,0,2.7915,-1.9608,-0.494775)">
        <path d="M10.218,18.485C10.312,18.789 10.142,19.111 9.838,19.205C9.534,19.299 9.212,19.129 9.118,18.825C9.024,18.521 9.194,18.199 9.498,18.105C9.802,18.011 10.124,18.181 10.218,18.485ZM14.092,19.733C14.226,20.166 13.984,20.625 13.552,20.758C13.12,20.892 12.66,20.65 12.526,20.217C12.392,19.785 12.634,19.325 13.067,19.192C13.499,19.059 13.958,19.301 14.092,19.733ZM12.467,18.307C12.538,18.537 12.41,18.781 12.179,18.852C11.949,18.923 11.705,18.794 11.634,18.564C11.563,18.334 11.692,18.09 11.922,18.019C12.152,17.948 12.396,18.077 12.467,18.307ZM14.925,17.976C14.992,18.194 14.871,18.424 14.653,18.492C14.436,18.559 14.205,18.438 14.137,18.22C14.07,18.002 14.191,17.772 14.409,17.704C14.627,17.637 14.858,17.759 14.925,17.976ZM17.768,18.326C17.893,18.728 17.667,19.155 17.265,19.28C16.863,19.405 16.436,19.18 16.311,18.777C16.186,18.375 16.412,17.948 16.814,17.823C17.217,17.698 17.644,17.924 17.768,18.326ZM22.521,20.305C22.601,20.563 22.457,20.836 22.199,20.915C21.942,20.995 21.668,20.851 21.589,20.593C21.509,20.336 21.653,20.062 21.911,19.983C22.169,19.903 22.442,20.048 22.521,20.305ZM16.667,20.305C16.747,20.563 16.603,20.836 16.345,20.915C16.088,20.995 15.814,20.851 15.735,20.593C15.655,20.336 15.799,20.062 16.057,19.983C16.314,19.903 16.588,20.048 16.667,20.305ZM20.885,18.999C20.965,19.256 20.821,19.53 20.563,19.609C20.306,19.689 20.032,19.545 19.953,19.287C19.874,19.029 20.017,18.756 20.275,18.677C20.532,18.597 20.806,18.742 20.885,18.999ZM19.384,19.198C19.502,19.579 19.289,19.983 18.908,20.101C18.527,20.219 18.123,20.006 18.005,19.625C17.887,19.244 18.1,18.84 18.481,18.722C18.862,18.604 19.266,18.817 19.384,19.198Z" style="fill:rgb(106,154,66);fill-rule:nonzero;" />
    </g>
</svg>
